Coordinates
version=1
nRows=38
nColumns=12
inDegrees=yes

Units are S.I. units (second, meters, Newtons, ...)
Angles are in degrees

endheader
time	SC_y	SC_z	SC_x	AC_y	AC_z	AC_x	GH_y	GH_z	GH_yy	EL_x	PS_y
       0.0              -49.94          14.56          20.03          57.11         -17.88         -14.16          129.4          88.37         -120.0           88.3          135.7
   0.03734              -49.93          14.56          20.03          57.11         -17.88         -14.15          129.4          88.36         -120.0          88.31          135.7
   0.07467              -49.93          14.56          20.04          57.11         -17.88         -14.15          129.3          88.36         -120.0          88.32          135.7
     0.112              -49.92          14.57          20.05           57.1         -17.87         -14.15          129.3          88.36         -120.0          88.32          135.7
    0.1493              -49.92          14.57          20.05           57.1         -17.87         -14.14          129.3          88.36         -120.0          88.33          135.7
    0.1867              -49.91          14.58          20.06           57.1         -17.86         -14.14          129.3          88.36         -120.0          88.34          135.7
     0.224              -49.91          14.58          20.07           57.1         -17.86         -14.14          129.2          88.36         -120.0          88.34          135.7
    0.2613               -49.9          14.59          20.08          57.09         -17.85         -14.14          129.2          88.36         -120.0          88.35          135.6
    0.2987              -49.89          14.59          20.09          57.09         -17.85         -14.13          129.2          88.36         -120.0          88.36          135.6
     0.336              -49.89           14.6           20.1          57.08         -17.84         -14.13          129.1          88.36         -120.0          88.37          135.6
    0.3734              -49.88           14.6          20.12          57.08         -17.84         -14.12          129.1          88.36         -120.1          88.38          135.6
    0.4107              -49.87          14.61          20.13          57.07         -17.83         -14.12          129.1          88.36         -120.1          88.39          135.6
     0.448              -49.86          14.62          20.14          57.07         -17.83         -14.11          129.0          88.36         -120.1           88.4          135.5
    0.4854              -49.85          14.62          20.16          57.06         -17.82         -14.11          129.0          88.35         -120.1          88.42          135.5
    0.5227              -49.84          14.63          20.17          57.06         -17.81          -14.1          128.9          88.35         -120.1          88.43          135.5
      0.56              -49.83          14.64          20.19          57.05          -17.8          -14.1          128.9          88.35         -120.1          88.45          135.5
    0.5974              -49.82          14.65          20.21          57.05         -17.79         -14.09          128.8          88.35         -120.1          88.46          135.4
    0.6347               -49.8          14.66          20.23          57.04         -17.78         -14.08          128.7          88.35         -120.1          88.48          135.4
     0.672              -49.79          14.67          20.25          57.03         -17.77         -14.08          128.7          88.35         -120.1           88.5          135.4
    0.7094              -49.77          14.69          20.28          57.02         -17.76         -14.07          128.6          88.34         -120.1          88.52          135.3
    0.7467              -49.76           14.7           20.3          57.01         -17.75         -14.06          128.5          88.34         -120.1          88.55          135.3
     0.784              -49.74          14.72          20.33           57.0         -17.73         -14.05          128.4          88.34         -120.2          88.57          135.2
    0.8214              -49.71          14.73          20.37          56.99         -17.72         -14.04          128.3          88.34         -120.2           88.6          135.2
    0.8587              -49.69          14.75           20.4          56.97          -17.7         -14.02          128.2          88.33         -120.2          88.63          135.1
     0.896              -49.66          14.77          20.44          56.96         -17.68         -14.01          128.1          88.33         -120.2          88.67          135.0
    0.9334              -49.63          14.79          20.49          56.94         -17.66         -13.99          127.9          88.33         -120.2          88.71          135.0
    0.9707               -49.6          14.82          20.54          56.93         -17.63         -13.97          127.8          88.32         -120.3          88.75          134.9
     1.008              -49.56          14.85           20.6           56.9         -17.61         -13.95          127.6          88.32         -120.3           88.8          134.8
     1.045              -49.52          14.88          20.66          56.88         -17.58         -13.93          127.4          88.31         -120.3          88.86          134.7
     1.083              -49.47          14.92          20.74          56.85         -17.54         -13.91          127.1           88.3         -120.4          88.92          134.5
      1.12              -49.42          14.96          20.82          56.82          -17.5         -13.88          126.9           88.3         -120.4          88.99          134.4
     1.157              -49.35          15.01          20.92          56.79         -17.45         -13.84          126.6          88.29         -120.5          89.07          134.2
     1.195              -49.28          15.07          21.03          56.75          -17.4          -13.8          126.2          88.28         -120.5          89.17          134.1
     1.232               -49.2          15.13          21.16           56.7         -17.34         -13.76          125.8          88.27         -120.6          89.28          133.8
     1.269               -49.1          15.21          21.31          56.65         -17.27         -13.71          125.4          88.26         -120.7          89.41          133.6
     1.307              -48.98           15.3          21.49          56.58         -17.18         -13.64          124.8          88.24         -120.7          89.57          133.3
     1.344              -48.84          15.41           21.7          56.51         -17.08         -13.57          124.1          88.22         -120.9          89.75          132.9
     1.381              -48.68          15.54          21.95          56.41         -16.96         -13.48          123.3           88.2         -121.0          89.97          132.5
